<svg xmlns="http://www.w3.org/2000/svg" xmlns:xlink="http://www.w3.org/1999/xlink" width="600" zoomAndPan="magnify" viewBox="0 0 450 299.999988" height="400" preserveAspectRatio="xMidYMid meet" version="1.0"><defs><clipPath id="id1"><path d="M 113.550781 0 L 326.550781 0 L 326.550781 300 L 113.550781 300 Z M 113.550781 0 " clip-rule="nonzero"/></clipPath></defs><g clip-path="url(#id1)"><path fill="#000000" d="M 295.183594 125 L 176.222656 125 L 176.222656 81.25 C 176.222656 57.125 195.882812 37.5 220.050781 37.5 C 244.21875 37.5 263.878906 57.125 263.878906 81.25 L 263.878906 106.25 C 263.878906 109.699219 266.683594 112.5 270.140625 112.5 L 295.183594 112.5 C 298.640625 112.5 301.445312 109.699219 301.445312 106.25 L 301.445312 81.25 C 301.445312 36.449219 264.929688 0 220.050781 0 C 175.171875 0 138.660156 36.449219 138.660156 81.25 L 138.660156 125.636719 C 124.382812 128.539062 113.613281 141.175781 113.613281 156.25 L 113.613281 268.75 C 113.613281 285.976562 127.652344 300 144.917969 300 L 295.183594 300 C 312.453125 300 326.488281 285.976562 326.488281 268.75 L 326.488281 156.25 C 326.488281 139.023438 312.453125 125 295.183594 125 Z M 233.9375 221.625 L 238.773438 255.363281 C 239.035156 257.164062 238.496094 258.976562 237.308594 260.335938 C 236.117188 261.699219 234.390625 262.5 232.574219 262.5 L 207.53125 262.5 C 205.714844 262.5 203.984375 261.710938 202.796875 260.351562 C 201.605469 258.988281 201.066406 257.164062 201.332031 255.375 L 206.164062 221.636719 C 195.695312 216.414062 188.746094 205.625 188.746094 193.75 C 188.746094 176.523438 202.785156 162.5 220.050781 162.5 C 237.320312 162.5 251.355469 176.523438 251.355469 193.75 C 251.355469 205.625 244.40625 216.414062 233.9375 221.625 Z M 233.9375 221.625 " fill-opacity="1" fill-rule="nonzero"/></g></svg>